<?xml version="1.0" encoding="utf-8"?>
<!-- Generator: Adobe Illustrator 25.2.0, SVG Export Plug-In . SVG Version: 6.00 Build 0)  -->
<svg version="1.1" id="Ebene_1" xmlns="http://www.w3.org/2000/svg" xmlns:xlink="http://www.w3.org/1999/xlink" x="0px" y="0px"
	 viewBox="0 0 82.72 84.5" style="enable-background:new 0 0 82.72 84.5;" xml:space="preserve">
<style type="text/css">
	.st0{fill:#FFFFFF;}
	.st1{fill:#3B4672;}
</style>
<path class="st1" d="M65.7,5.26H53.42H33.46h-3.73H29.3c-13.42,0-24.28,10.6-24.87,23.87c-0.02,0.38-0.11,0.74-0.11,1.12v24
	c0,0.38,0.1,0.74,0.11,1.12c0.6,13.27,11.46,23.87,24.87,23.87h0.42h23.69c4.49,0,8.64-1.28,12.28-3.35
	c7.55-4.3,12.7-12.32,12.7-21.64V35.17v-4.92V5.26H65.7z"/>
<path class="st0" d="M57.41,18.31h-19.9c-4.07,0-7.28,1.19-9.62,3.57c-2.34,2.38-3.52,5.64-3.52,9.76v21.21
	c0,4.13,1.18,7.39,3.52,9.76c2.34,2.38,5.55,3.57,9.62,3.57h6c4.88,0,8.13-1.63,9.76-4.88h0.37v3.76c0,0.75,0.34,1.12,1.03,1.12
	h2.73c0.63,0,0.94-0.37,0.94-1.12V19.44C58.35,18.69,58.04,18.31,57.41,18.31z M53.66,52.76c0,2.94-0.86,5.21-2.58,6.81
	c-1.72,1.6-4.08,2.39-7.08,2.39h-6.1c-2.88,0-5.07-0.81-6.57-2.44c-1.5-1.63-2.25-3.91-2.25-6.85V31.83c0-2.94,0.75-5.22,2.25-6.85
	c1.5-1.63,3.69-2.44,6.57-2.44h14.83c0.63,0,0.94,0.28,0.94,0.85V52.76z"/>
</svg>
