<?xml version="1.0" encoding="UTF-8" standalone="no"?>
<!-- Generator: Adobe Illustrator 25.2.0, SVG Export Plug-In . SVG Version: 6.00 Build 0)  -->

<svg
   version="1.1"
   id="Ebene_1"
   x="0px"
   y="0px"
   viewBox="0 0 70.370002 42.400002"
   xml:space="preserve"
   sodipodi:docname="abap_logo_blau_2022.svg"
   inkscape:version="1.1.1 (3bf5ae0d25, 2021-09-20)"
   width="70.370003"
   height="42.400002"
   xmlns:inkscape="http://www.inkscape.org/namespaces/inkscape"
   xmlns:sodipodi="http://sodipodi.sourceforge.net/DTD/sodipodi-0.dtd"
   xmlns="http://www.w3.org/2000/svg"
   xmlns:svg="http://www.w3.org/2000/svg"><defs
   id="defs896" /><sodipodi:namedview
   id="namedview894"
   pagecolor="#ffffff"
   bordercolor="#666666"
   borderopacity="1.0"
   inkscape:pageshadow="2"
   inkscape:pageopacity="0.0"
   inkscape:pagecheckerboard="true"
   showgrid="false"
   inkscape:zoom="38.295858"
   inkscape:cx="42.315281"
   inkscape:cy="33.254249"
   inkscape:window-width="1920"
   inkscape:window-height="1017"
   inkscape:window-x="-8"
   inkscape:window-y="-8"
   inkscape:window-maximized="1"
   inkscape:current-layer="g891"
   fit-margin-top="0"
   fit-margin-left="0"
   fit-margin-right="0"
   fit-margin-bottom="0" />
<style
   type="text/css"
   id="style861">
	.st0{fill:#FFFFFF;}
	.st1{fill:#3B4672;}
</style>
<g
   id="g891"
   transform="translate(-6.18,-21.05)">
	<path
   class="st1"
   d="M 62.23,21.05 H 22.88 20.5 c -7.91,0 -14.32,6.41 -14.32,14.32 v 13.76 c 0,7.91 6.41,14.32 14.32,14.32 h 41.73 c 7.91,0 14.32,-6.41 14.32,-14.32 V 38.19 35.37 21.05 Z"
   id="path863" /><path
   class="st0"
   d="m 52.115049,57.472881 v -0.59 c 0,-0.32 0.14,-0.59 0.43,-0.8 l 2.02,-1.56 c 0.43,-0.33 0.640001,-0.75 0.640001,-1.28 v -0.43 c 0,-0.45 -0.130001,-0.79 -0.380001,-1.04 -0.25,-0.25 -0.6,-0.37 -1.04,-0.37 H 52.95505 c -0.44,0 -0.79,0.13 -1.05,0.38 -0.26,0.25 -0.39,0.6 -0.39,1.04 v 0.47 c 0,0.08 0.04,0.12 0.11,0.12 h 0.29 c 0.07,0 0.11,-0.04 0.11,-0.12 v -0.46 c 0,-0.65 0.32,-0.98 0.96,-0.98 h 0.729999 c 0.64,0 0.97,0.33 0.97,0.98 v 0.4 c 0,0.41 -0.17,0.75 -0.52,1.02 l -2,1.53 c -0.41,0.3 -0.61,0.69 -0.61,1.17 v 0.9 c 0,0.07 0.04,0.11 0.12,0.11 h 3.44 c 0.07,0 0.11,-0.04 0.11,-0.11 v -0.24 c 0,-0.07 -0.04,-0.11 -0.11,-0.11 h -3 z"
   id="path877-2"
   style="fill:#ffffff" />
	<g
   id="g889">
		<path
   class="st0"
   d="m 16.56,51.41 c -0.56,0 -0.99,0.16 -1.32,0.49 -0.32,0.32 -0.48,0.77 -0.48,1.33 v 2.9 c 0,0.56 0.16,1.01 0.48,1.33 0.32,0.32 0.76,0.49 1.32,0.49 h 1.85 c 0.09,0 0.14,-0.05 0.14,-0.14 v -0.3 c 0,-0.09 -0.05,-0.14 -0.14,-0.14 h -1.8 c -0.39,0 -0.69,-0.11 -0.9,-0.33 C 15.5,56.82 15.4,56.51 15.4,56.1 v -2.85 c 0,-0.4 0.1,-0.71 0.31,-0.94 0.2,-0.22 0.5,-0.33 0.9,-0.33 h 1.8 c 0.09,0 0.14,-0.04 0.14,-0.13 v -0.31 c 0,-0.09 -0.05,-0.14 -0.14,-0.14 h -1.85 z"
   id="path865" />
		<path
   class="st0"
   d="m 22.71,51.41 h -1.1 c -0.56,0 -0.99,0.16 -1.31,0.49 -0.32,0.32 -0.48,0.77 -0.48,1.33 v 2.9 c 0,0.56 0.16,1.01 0.48,1.33 0.32,0.32 0.76,0.49 1.31,0.49 h 1.1 c 0.56,0 1,-0.16 1.32,-0.49 0.32,-0.32 0.49,-0.77 0.49,-1.33 v -2.9 c 0,-0.56 -0.16,-1.01 -0.49,-1.33 -0.32,-0.33 -0.76,-0.49 -1.32,-0.49 z m 1.17,4.7 c 0,0.4 -0.1,0.71 -0.31,0.93 -0.21,0.22 -0.51,0.33 -0.9,0.33 h -1 c -0.39,0 -0.69,-0.11 -0.9,-0.33 -0.2,-0.22 -0.31,-0.53 -0.31,-0.93 v -2.87 c 0,-0.4 0.1,-0.71 0.31,-0.93 0.21,-0.22 0.51,-0.33 0.9,-0.33 h 1 c 0.39,0 0.69,0.11 0.9,0.33 0.21,0.22 0.31,0.53 0.31,0.93 z"
   id="path867" />
		<path
   class="st0"
   d="m 29.18,51.41 h -0.85 c -0.65,0 -1.09,0.22 -1.33,0.67 h -0.05 v -0.51 c 0,-0.1 -0.05,-0.15 -0.14,-0.15 h -0.37 c -0.09,0 -0.13,0.05 -0.13,0.15 v 6.23 c 0,0.1 0.04,0.15 0.13,0.15 h 0.37 c 0.09,0 0.14,-0.05 0.14,-0.15 v -4.55 c 0,-0.4 0.12,-0.71 0.35,-0.93 0.23,-0.22 0.56,-0.33 0.97,-0.33 h 0.83 c 0.39,0 0.69,0.11 0.9,0.33 0.21,0.22 0.31,0.53 0.31,0.94 v 4.54 c 0,0.1 0.05,0.15 0.14,0.15 h 0.37 c 0.09,0 0.13,-0.05 0.13,-0.15 v -4.57 c 0,-0.56 -0.16,-1.01 -0.47,-1.33 -0.32,-0.33 -0.76,-0.49 -1.3,-0.49 z"
   id="path869" />
		<path
   class="st0"
   d="m 35.01,48.93 c -1.09,0 -1.63,0.6 -1.63,1.8 v 0.56 c 0,0.08 -0.04,0.12 -0.11,0.12 h -0.82 c -0.09,0 -0.14,0.05 -0.14,0.14 v 0.3 c 0,0.09 0.05,0.14 0.14,0.14 h 0.82 c 0.08,0 0.11,0.04 0.11,0.11 v 5.69 c 0,0.1 0.05,0.15 0.14,0.15 h 0.37 c 0.09,0 0.14,-0.05 0.14,-0.15 V 52.1 c 0,-0.08 0.04,-0.11 0.12,-0.11 h 1.17 c 0.1,0 0.15,-0.05 0.15,-0.14 v -0.3 c 0,-0.09 -0.05,-0.14 -0.15,-0.14 h -1.17 c -0.08,0 -0.12,-0.04 -0.12,-0.12 v -0.54 c 0,-0.42 0.08,-0.73 0.23,-0.94 0.15,-0.2 0.42,-0.31 0.81,-0.31 h 0.24 c 0.1,0 0.15,-0.05 0.15,-0.14 v -0.3 c 0,-0.09 -0.05,-0.14 -0.15,-0.14 h -0.3 z"
   id="path871" />
		<path
   class="st0"
   d="m 37.17,57.48 v -0.59 c 0,-0.32 0.14,-0.59 0.43,-0.8 l 2.02,-1.56 c 0.43,-0.33 0.64,-0.75 0.64,-1.28 v -0.43 c 0,-0.45 -0.13,-0.79 -0.38,-1.04 -0.25,-0.25 -0.6,-0.37 -1.04,-0.37 h -0.82 c -0.44,0 -0.79,0.13 -1.05,0.38 -0.26,0.25 -0.39,0.6 -0.39,1.04 v 0.47 c 0,0.08 0.04,0.12 0.11,0.12 h 0.29 c 0.07,0 0.11,-0.04 0.11,-0.12 v -0.46 c 0,-0.65 0.32,-0.98 0.96,-0.98 h 0.73 c 0.65,0 0.97,0.33 0.97,0.98 v 0.4 c 0,0.41 -0.17,0.75 -0.52,1.02 l -2,1.53 c -0.41,0.3 -0.61,0.69 -0.61,1.17 v 0.9 c 0,0.07 0.04,0.11 0.12,0.11 h 3.44 c 0.07,0 0.11,-0.04 0.11,-0.11 v -0.24 c 0,-0.07 -0.04,-0.11 -0.11,-0.11 h -3.01 z"
   id="path873" />
		<path
   class="st0"
   d="m 43.99,51.41 h -1.02 c -0.44,0 -0.79,0.13 -1.05,0.39 -0.26,0.26 -0.39,0.61 -0.39,1.06 v 3.65 c 0,0.45 0.13,0.8 0.39,1.06 0.26,0.26 0.61,0.39 1.05,0.39 h 1.02 c 0.44,0 0.79,-0.13 1.04,-0.39 0.25,-0.26 0.38,-0.61 0.38,-1.06 v -3.65 c 0,-0.45 -0.13,-0.8 -0.38,-1.06 -0.25,-0.27 -0.6,-0.39 -1.04,-0.39 z m 0.92,5.07 c 0,0.33 -0.08,0.57 -0.24,0.75 -0.16,0.17 -0.4,0.26 -0.71,0.26 h -0.94 c -0.31,0 -0.55,-0.09 -0.71,-0.26 -0.16,-0.17 -0.24,-0.42 -0.24,-0.75 v -3.61 c 0,-0.33 0.08,-0.58 0.24,-0.75 0.16,-0.17 0.4,-0.26 0.71,-0.26 h 0.94 c 0.31,0 0.55,0.09 0.71,0.26 0.16,0.17 0.24,0.42 0.24,0.75 z"
   id="path875" />
		<path
   class="st0"
   d="m 47.26,57.48 v -0.59 c 0,-0.32 0.14,-0.59 0.43,-0.8 l 2.02,-1.56 c 0.43,-0.33 0.64,-0.75 0.64,-1.28 v -0.43 c 0,-0.45 -0.13,-0.79 -0.38,-1.04 -0.25,-0.25 -0.6,-0.37 -1.04,-0.37 H 48.1 c -0.44,0 -0.79,0.13 -1.05,0.38 -0.26,0.25 -0.39,0.6 -0.39,1.04 v 0.47 c 0,0.08 0.04,0.12 0.11,0.12 h 0.29 c 0.07,0 0.11,-0.04 0.11,-0.12 v -0.46 c 0,-0.65 0.32,-0.98 0.96,-0.98 h 0.73 c 0.64,0 0.97,0.33 0.97,0.98 v 0.4 c 0,0.41 -0.17,0.75 -0.52,1.02 l -2,1.53 c -0.41,0.3 -0.61,0.69 -0.61,1.17 v 0.9 c 0,0.07 0.04,0.11 0.12,0.11 h 3.44 c 0.07,0 0.11,-0.04 0.11,-0.11 v -0.24 c 0,-0.07 -0.04,-0.11 -0.11,-0.11 h -3 z"
   id="path877" />
		
		<path
   class="st0"
   d="m 24.71,32 h -5.99 c -1.23,0 -2.19,0.36 -2.9,1.07 -0.71,0.72 -1.06,1.7 -1.06,2.94 v 6.39 c 0,1.24 0.35,2.22 1.06,2.94 0.71,0.72 1.67,1.07 2.9,1.07 h 1.81 c 1.47,0 2.45,-0.49 2.94,-1.47 h 0.11 v 1.13 c 0,0.23 0.1,0.34 0.31,0.34 h 0.82 c 0.19,0 0.28,-0.11 0.28,-0.34 V 32.34 C 25,32.12 24.9,32 24.71,32 Z m -1.13,10.38 c 0,0.89 -0.26,1.57 -0.78,2.05 -0.52,0.48 -1.23,0.72 -2.13,0.72 h -1.84 c -0.87,0 -1.53,-0.24 -1.98,-0.73 -0.45,-0.49 -0.68,-1.18 -0.68,-2.06 v -6.28 c 0,-0.89 0.23,-1.57 0.68,-2.06 0.45,-0.49 1.11,-0.74 1.98,-0.74 h 4.47 c 0.19,0 0.28,0.09 0.28,0.26 z"
   id="path881" />
		<path
   class="st0"
   d="m 39.53,42.41 v -6.64 c 0,-1.23 -0.35,-2.2 -1.06,-2.91 -0.71,-0.71 -1.67,-1.07 -2.9,-1.07 H 33.7 c -1.43,0 -2.41,0.49 -2.94,1.47 H 30.65 V 26.9 c 0,-0.23 -0.1,-0.34 -0.31,-0.34 h -0.82 c -0.19,0 -0.28,0.11 -0.28,0.34 v 19.2 c 0,0.23 0.09,0.34 0.28,0.34 h 6.05 c 1.23,0 2.19,-0.36 2.9,-1.07 0.7,-0.74 1.06,-1.72 1.06,-2.96 z m -1.42,-0.06 c 0,0.9 -0.23,1.6 -0.69,2.08 -0.46,0.48 -1.12,0.72 -1.99,0.72 h -4.5 c -0.19,0 -0.28,-0.09 -0.28,-0.25 v -9.08 c 0,-0.89 0.26,-1.57 0.78,-2.05 0.52,-0.48 1.23,-0.72 2.13,-0.72 h 1.87 c 0.87,0 1.53,0.24 1.99,0.72 0.46,0.48 0.69,1.16 0.69,2.05 z"
   id="path883" />
		<path
   class="st0"
   d="m 53.15,32 h -5.99 c -1.22,0 -2.19,0.36 -2.9,1.07 -0.71,0.72 -1.06,1.7 -1.06,2.94 v 6.39 c 0,1.24 0.35,2.22 1.06,2.94 0.71,0.72 1.67,1.07 2.9,1.07 h 1.81 c 1.47,0 2.45,-0.49 2.94,-1.47 h 0.11 v 1.13 c 0,0.23 0.1,0.34 0.31,0.34 h 0.82 c 0.19,0 0.28,-0.11 0.28,-0.34 V 32.34 C 53.43,32.12 53.34,32 53.15,32 Z m -1.13,10.38 c 0,0.89 -0.26,1.57 -0.78,2.05 -0.52,0.48 -1.23,0.72 -2.13,0.72 h -1.84 c -0.87,0 -1.53,-0.24 -1.98,-0.73 -0.45,-0.49 -0.68,-1.18 -0.68,-2.06 v -6.28 c 0,-0.89 0.23,-1.57 0.68,-2.06 0.45,-0.49 1.11,-0.74 1.98,-0.74 h 4.47 c 0.19,0 0.28,0.09 0.28,0.26 z"
   id="path885" />
		<path
   class="st0"
   d="m 66.92,33.08 c -0.7,-0.72 -1.65,-1.07 -2.86,-1.07 h -1.92 c -1.43,0 -2.41,0.49 -2.94,1.47 h -0.11 v -1.13 c 0,-0.23 -0.1,-0.34 -0.31,-0.34 h -0.82 c -0.19,0 -0.28,0.12 -0.28,0.34 v 15.29 2.69 7.35 c 0,0.15 0.12,0.28 0.28,0.28 h 0.86 c 0.15,0 0.28,-0.12 0.28,-0.28 v -7.35 -2.69 -2.68 h 0.11 c 0.53,0.98 1.51,1.47 2.94,1.47 h 1.92 c 1.21,0 2.16,-0.36 2.86,-1.07 0.7,-0.72 1.04,-1.7 1.04,-2.94 V 36.03 C 67.96,34.78 67.62,33.8 66.92,33.08 Z m -0.37,9.27 c 0,0.9 -0.23,1.6 -0.69,2.08 -0.46,0.48 -1.13,0.72 -1.99,0.72 H 62 c -0.9,0 -1.61,-0.24 -2.13,-0.72 -0.52,-0.48 -0.78,-1.16 -0.78,-2.05 v -6.33 c 0,-0.89 0.26,-1.57 0.78,-2.05 0.52,-0.48 1.23,-0.72 2.13,-0.72 h 1.87 c 0.87,0 1.53,0.24 1.99,0.72 0.46,0.48 0.69,1.17 0.69,2.08 z"
   id="path887" />
	</g>
</g>
</svg>
